<?xml version="1.0" encoding="UTF-8"?>
<svg version="1.1" xmlns="http://www.w3.org/2000/svg" width="524" height="476">
<path d="M0 0 C6.27683524 3.44881057 10.05035326 8.26353294 13.02734375 14.6640625 C14.74669219 22.25785144 14.72619324 30.10472122 10.77734375 36.9765625 C6.65337825 43.06751425 2.00493441 47.18644717 -5.22265625 48.9765625 C-12.6968647 49.9231641 -19.01103702 49.45066586 -25.22265625 44.9765625 C-27.97265625 42.4765625 -27.97265625 42.4765625 -30.22265625 39.9765625 C-30.96515625 39.2753125 -31.70765625 38.5740625 -32.47265625 37.8515625 C-34.22265625 35.9765625 -34.22265625 35.9765625 -35.22265625 32.9765625 C-39.03455992 32.80039916 -42.84540123 32.69509415 -46.66015625 32.6015625 C-47.72943359 32.55128906 -48.79871094 32.50101563 -49.90039062 32.44921875 C-57.68084897 32.30645805 -62.38526961 33.77220306 -68.22265625 38.9765625 C-76.54409513 47.61343499 -81.67795412 60.40886763 -84.23754883 71.99755859 C-84.40517888 72.73381155 -84.57280893 73.47006451 -84.74551868 74.22862816 C-86.41467111 81.64835302 -87.88287239 89.10606939 -89.296875 96.578125 C-89.58063547 98.06415476 -89.86459831 99.55014589 -90.14874268 101.03610229 C-90.91481687 105.05012638 -91.6752287 109.06520191 -92.43375778 113.08065796 C-92.91529155 115.62873641 -93.39810184 118.17657045 -93.88113403 120.72436523 C-99.4799385 150.27735181 -104.86263121 179.86822661 -110.16015625 209.4765625 C-110.33459133 210.45045174 -110.50902641 211.42434097 -110.68874741 212.427742 C-111.87995696 219.07870054 -113.06655392 225.73046842 -114.25 232.3828125 C-114.49526711 233.75885714 -114.49526711 233.75885714 -114.74548912 235.16270065 C-116.68541467 246.05874209 -118.56329054 256.96282619 -120.36376953 267.8828125 C-120.7210443 270.03529683 -121.07842953 272.18776283 -121.43592834 274.34020996 C-122.11486129 278.42960846 -122.77993004 282.52093007 -123.43699646 286.6138916 C-125.57160584 299.65592314 -127.90337801 311.32950568 -136.22265625 321.9765625 C-136.70089844 322.59273438 -137.17914063 323.20890625 -137.671875 323.84375 C-143.86764079 330.86665832 -154.72986287 336.52314963 -164.13442993 337.17990112 C-165.28196747 337.21576324 -166.429505 337.25162537 -167.61181641 337.28857422 C-168.58201029 337.31930967 -168.58201029 337.31930967 -169.57180405 337.35066605 C-171.7599807 337.41696691 -173.94826425 337.47489481 -176.13671875 337.53125 C-176.9099007 337.55218594 -177.68308266 337.57312187 -178.47969437 337.59469223 C-200.18335182 338.16824885 -221.8934117 338.12841903 -243.60302734 338.10693359 C-249.48813588 338.10116327 -255.3731995 338.10458013 -261.2583065 338.11050606 C-265.86195206 338.11413257 -270.46558706 338.11296474 -275.06923294 338.11037827 C-277.24029165 338.10971859 -279.41135137 338.11050321 -281.58240891 338.11285782 C-292.84316127 338.1224234 -304.00227271 338.03983658 -315.22265625 336.9765625 C-314.65481443 331.525281 -313.39811534 327.02362759 -311.22265625 321.9765625 C-308.55258157 320.64152516 -306.52899226 320.85492149 -303.53794861 320.85871887 C-301.72325577 320.85704208 -301.72325577 320.85704208 -299.87190247 320.85533142 C-298.52389515 320.85899656 -297.17588795 320.86270594 -295.82788086 320.86645508 C-294.41363525 320.86669714 -292.99938947 320.86642022 -291.58514404 320.86566162 C-288.53438211 320.86455384 -285.48363521 320.86599224 -282.43287468 320.86902809 C-277.60370114 320.87265707 -272.77460614 320.86352782 -267.94544983 320.85124207 C-267.13047073 320.84922014 -266.31549163 320.84719821 -265.47581619 320.84511501 C-263.80890584 320.84094608 -262.14199556 320.83674332 -260.47508538 320.83250749 C-249.23082163 320.80436885 -237.98672679 320.78420318 -226.74243164 320.80151367 C-219.16077971 320.81309021 -211.57947951 320.80342298 -203.99789053 320.76945609 C-199.98721803 320.75233302 -195.97717995 320.7459627 -191.96650505 320.7655735 C-188.18802595 320.78387992 -184.41063624 320.77407088 -180.63224792 320.74331665 C-179.25084822 320.73698028 -177.86935677 320.74073296 -176.48802376 320.75571251 C-167.7353683 320.84352736 -161.84849811 319.94718471 -155.22265625 313.9765625 C-152.04047474 310.62689775 -150.25084574 307.10092548 -148.22265625 302.9765625 C-154.44526282 302.5500535 -160.66792709 302.12439301 -166.890625 301.69921875 C-168.34868592 301.59957164 -168.34868592 301.59957164 -169.83620262 301.49791145 C-182.75874941 300.61531391 -195.68196078 299.74348735 -208.60618401 298.88578224 C-217.52664163 298.29372693 -226.44674142 297.69646133 -235.36664009 297.09604454 C-241.08832988 296.71120685 -246.81019443 296.32939335 -252.5324707 295.95336914 C-258.20518688 295.58045926 -263.87736568 295.20018495 -269.54924583 294.81477547 C-271.67846217 294.67139262 -273.80785802 294.53064835 -275.93743324 294.39269829 C-278.8797919 294.20170205 -281.82136566 294.00126234 -284.76293945 293.79858398 C-286.05216309 293.71825676 -286.05216309 293.71825676 -287.36743164 293.63630676 C-292.25256886 293.28819199 -296.56282178 292.49625389 -301.22265625 290.9765625 C-300.73206831 284.35362532 -298.84948988 279.04572437 -296.22265625 272.9765625 C-281.70439534 272.66304577 -267.33043389 273.65015281 -252.85546875 274.69140625 C-250.32457347 274.86893474 -247.79363793 275.04589014 -245.26266479 275.2223053 C-239.31088821 275.63833519 -233.35947761 276.05933259 -227.40824687 276.4830814 C-216.14489182 277.2848337 -204.88067108 278.07429792 -193.61648178 278.8642292 C-189.95260647 279.12207029 -186.28892678 279.38254862 -182.62527466 279.64353943 C-169.82940962 280.55018348 -157.03615957 281.3645538 -144.22265625 281.9765625 C-138.99177855 255.63367672 -134.14871327 229.230209 -129.44433594 202.78869629 C-128.75104687 198.89559933 -128.05518576 195.00296449 -127.35912198 191.11036283 C-123.17719585 167.71754219 -119.04717473 144.31579341 -114.94458008 120.90893555 C-114.48313612 118.27713907 -114.02161387 115.64535634 -113.56009674 113.01357269 C-112.44735885 106.66794779 -111.33489341 100.32227518 -110.22265625 93.9765625 C-151.71030016 93.93077517 -193.19794116 93.89553826 -234.68560534 93.87443184 C-239.58467443 93.87193046 -244.48374348 93.86934181 -249.3828125 93.86669922 C-250.35812043 93.8661746 -251.33342835 93.86564998 -252.33829106 93.86510946 C-268.12603402 93.85640914 -283.9137624 93.8406412 -299.70149671 93.82225691 C-315.90366188 93.80354751 -332.10581943 93.79244357 -348.30799496 93.78838551 C-358.30391486 93.78564262 -368.29979354 93.7769823 -378.29570074 93.76072957 C-385.15219313 93.75014986 -392.00866425 93.74696412 -398.86516421 93.74955975 C-402.81975166 93.75083949 -406.77426715 93.74889086 -410.72884178 93.73815155 C-414.35376486 93.72837962 -417.97856794 93.72795303 -421.60349669 93.73476471 C-423.52675 93.73600251 -425.45000203 93.72741214 -427.37323463 93.71839988 C-438.25502897 93.75578821 -447.86178315 94.41601737 -456.22265625 101.9765625 C-462.04427149 108.44153684 -460.63342925 117.8672189 -460.22265625 125.9765625 C-459.69154884 132.73144453 -458.79084968 139.44612992 -457.921875 146.1640625 C-457.68157883 148.0789938 -457.44216202 149.99403562 -457.2035675 151.90917969 C-456.57716491 156.91834106 -455.93908388 161.92594424 -455.29833984 166.93328857 C-454.65734502 171.95854691 -454.02748243 176.98519732 -453.39648438 182.01171875 C-453.14842846 183.98153452 -452.90031087 185.95134253 -452.65213013 187.92114258 C-452.16891171 191.75789327 -451.68869511 195.5950034 -451.2104187 199.43237305 C-450.22697509 207.28904987 -449.22484183 215.13449843 -448.02197266 222.9609375 C-447.85542679 224.09047852 -447.68888092 225.22001953 -447.51728821 226.38378906 C-447.2219688 228.35818299 -446.90508827 230.32955278 -446.56022644 232.29589844 C-446.21903155 234.62660091 -445.96458154 236.63617477 -446.22265625 238.9765625 C-449.07134481 242.70366512 -452.16732001 244.79335414 -456.34765625 246.8515625 C-457.61996094 247.49738281 -457.61996094 247.49738281 -458.91796875 248.15625 C-461.22265625 248.9765625 -461.22265625 248.9765625 -464.22265625 247.9765625 C-466.33414266 244.00975242 -466.85605552 239.76599419 -467.44921875 235.3671875 C-467.61226753 234.21043015 -467.61226753 234.21043015 -467.77861023 233.03030396 C-468.14222149 230.43000701 -468.49535575 227.82841453 -468.84765625 225.2265625 C-468.97216156 224.32270813 -469.09666687 223.41885376 -469.22494507 222.48760986 C-472.61380299 197.88124247 -475.58666717 173.21879047 -478.5859375 148.5625 C-478.73673264 147.32347931 -478.88752777 146.08445862 -479.04289246 144.80789185 C-484.12757561 102.83804619 -484.12757561 102.83804619 -474.23828125 89.25 C-466.08827355 79.45265032 -457.30590155 75.00612166 -444.76477706 73.72559845 C-442.20488833 73.56151298 -439.64900149 73.45086446 -437.08531189 73.36439514 C-436.1030966 73.32689716 -435.12088131 73.28939919 -434.10890192 73.25076491 C-420.96686553 72.79902844 -407.81673143 72.79994836 -394.66847622 72.77595389 C-390.78267125 72.76780717 -386.89688464 72.75416074 -383.01109314 72.74124146 C-376.3069219 72.71967687 -369.60274863 72.70146133 -362.89856148 72.68563652 C-353.20588615 72.66275255 -343.5132313 72.63463741 -333.82057356 72.60531724 C-318.08815517 72.55786572 -302.35572831 72.51454209 -286.62329102 72.47387695 C-271.35668277 72.43440691 -256.090082 72.39295388 -240.82348633 72.34887695 C-239.87966437 72.34615268 -238.93584242 72.34342841 -237.9634198 72.34062158 C-233.22770964 72.32694022 -228.49199959 72.31322032 -223.7562896 72.29948127 C-184.57842744 72.18586979 -145.40054917 72.07898383 -106.22265625 71.9765625 C-105.93158241 71.07879341 -105.93158241 71.07879341 -105.6346283 70.16288757 C-104.7406722 67.41550064 -103.83914695 64.67065332 -102.9375 61.92578125 C-102.6324353 60.98440308 -102.32737061 60.0430249 -102.01306152 59.07312012 C-96.61334186 42.69551699 -87.43147007 26.88116972 -71.64453125 18.62890625 C-62.99824336 14.92903766 -54.48721454 14.83100094 -45.22265625 14.9140625 C-44.25714844 14.91857422 -43.29164063 14.92308594 -42.296875 14.92773438 C-39.93873536 14.93940833 -37.58073023 14.95578229 -35.22265625 14.9765625 C-34.93648438 14.2134375 -34.6503125 13.4503125 -34.35546875 12.6640625 C-31.52540823 5.94998789 -26.4997518 2.27269426 -20.22265625 -1.0234375 C-13.68029392 -3.20422494 -6.30987454 -2.76137659 0 0 Z " fill="#0F0F0F" transform="translate(495.22265625,18.0234375)"/>
<path d="M0 0 C2.50267397 1.87700548 3.74929283 3.22513355 4.71582031 6.21240234 C5.08374826 9.82151 4.31031399 12.43065414 3.296875 15.9140625 C3.00740242 16.92383652 3.00740242 16.92383652 2.71208191 17.95401001 C2.06968017 20.18123723 1.41036561 22.40303828 0.75 24.625 C0.28668323 26.21176596 -0.17611661 27.79868294 -0.63842773 29.38574219 C-4.07473082 41.12064541 -7.69148752 52.79814518 -11.3972168 64.45043945 C-14.72963452 74.93033021 -17.98988126 85.43087551 -21.22015381 95.94271851 C-33.65231343 136.39744712 -33.65231343 136.39744712 -38.19723511 150.35360718 C-38.79253082 152.18845022 -39.3751287 154.02739793 -39.95727539 155.86645508 C-40.30781982 156.92630615 -40.65836426 157.98615723 -41.01953125 159.078125 C-41.30932861 159.96918945 -41.59912598 160.86025391 -41.89770508 161.77832031 C-43.21449669 164.43231891 -44.44583293 165.52647655 -47 167 C-50.375 167.1875 -50.375 167.1875 -54 166 C-59.913806 160.15267574 -63.45129722 151.89243349 -67.25 144.625 C-68.47981124 142.2813855 -69.71537538 139.94101598 -70.953125 137.6015625 C-71.49098633 136.57369629 -72.02884766 135.54583008 -72.58300781 134.48681641 C-73.8960675 131.92773167 -73.8960675 131.92773167 -76 130 C-81.28845467 135.78159032 -85.98860983 141.90487995 -90.65332031 148.19433594 C-114.75083169 180.50492226 -114.75083169 180.50492226 -121.53125 182.890625 C-130.17505258 183.27357828 -139.27534666 172.76329157 -145.45288086 167.33935547 C-147.04680003 165.95948478 -148.66992979 164.62106909 -150.30078125 163.28515625 C-154.14845373 160.02772007 -154.14845373 160.02772007 -155 157 C-154.68898371 151.78812101 -151.71685835 148.51788046 -148.625 144.5625 C-148.08697754 143.86020264 -147.54895508 143.15790527 -146.99462891 142.43432617 C-145.34013964 140.28126022 -143.67256297 138.13904656 -142 136 C-141.51080078 135.37287109 -141.02160156 134.74574219 -140.51757812 134.09960938 C-138.24158231 131.18595592 -135.95598289 128.28004508 -133.6640625 125.37890625 C-126.85871826 116.75896949 -120.18925503 108.07894033 -114 99 C-121.22947379 95.13436877 -128.70057097 91.97247654 -136.30981445 88.94335938 C-140.74583263 87.13262907 -144.51270044 85.39823297 -148 82 C-149.12518236 78.69477682 -149.34693093 76.90862864 -148.09765625 73.63671875 C-144.93771524 69.66472587 -140.93671011 67.97338409 -136.4375 65.75 C-135.44459961 65.24549316 -134.45169922 64.74098633 -133.42871094 64.22119141 C-130.59409415 62.78588272 -127.75311445 61.3642331 -124.90814209 59.94958496 C-122.90178876 58.95112528 -120.8972201 57.94915626 -118.89306641 56.94628906 C-118.1883168 56.5936499 -117.4835672 56.24101074 -116.75746155 55.87768555 C-116.03956955 55.51843994 -115.32167755 55.15919434 -114.58203125 54.7890625 C-110.25641775 52.62459579 -105.92971598 50.46254542 -101.59545898 48.31542969 C-94.497961 44.79358176 -87.44992557 41.19853825 -80.453125 37.48046875 C-67.82856699 30.78557965 -55.02681704 24.43773155 -42.2421875 18.0559082 C-38.66450904 16.26996286 -35.08868848 14.48033114 -31.51335144 12.68970394 C-28.73632412 11.29938824 -25.95835186 9.9109695 -23.18008423 8.52313423 C-21.8592903 7.86306978 -20.53879097 7.20241548 -19.21859741 6.54115105 C-17.39018804 5.62567949 -15.56036197 4.71303905 -13.73046875 3.80053711 C-12.69301514 3.2822081 -11.65556152 2.76387909 -10.58666992 2.22984314 C-6.91661556 0.48490029 -4.0588272 -0.49497893 0 0 Z M-25.34765625 28.94921875 C-26.25056396 29.37871826 -27.15347168 29.80821777 -28.08374023 30.25073242 C-29.06673096 30.72486572 -30.04972168 31.19899902 -31.0625 31.6875 C-32.08093994 32.17645752 -33.09937988 32.66541504 -34.14868164 33.16918945 C-42.8086738 37.35891201 -51.35736074 41.74943517 -59.86938477 46.23120117 C-67.47601259 50.23472311 -75.14614479 54.09710993 -82.84182739 57.92544556 C-86.56373948 59.77858611 -90.28161477 61.63979582 -94 63.5 C-95.49737754 64.24873451 -96.99477334 64.99743249 -98.4921875 65.74609375 C-99.23178711 66.11589355 -99.97138672 66.48569336 -100.73339844 66.86669922 C-106.82226562 69.91113281 -112.91113281 72.95556641 -119 76 C-119 76.66 -119 77.32 -119 78 C-118.25838623 78.28721924 -117.51677246 78.57443848 -116.75268555 78.87036133 C-113.39438999 80.17626283 -110.04095471 81.4942201 -106.6875 82.8125 C-105.52025391 83.26431641 -104.35300781 83.71613281 -103.15039062 84.18164062 C-102.03212891 84.62314453 -100.91386719 85.06464844 -99.76171875 85.51953125 C-98.73006592 85.92276611 -97.69841309 86.32600098 -96.63549805 86.74145508 C-94.13938718 87.93343762 -92.67128634 88.82036552 -91 91 C-90.22307667 96.18668263 -91.7384937 98.78866951 -94.75 102.9375 C-95.15049561 103.49397217 -95.55099121 104.05044434 -95.96362305 104.6237793 C-99.5952261 109.60487581 -103.45685544 114.40686577 -107.33813477 119.19433594 C-112.60387039 125.69598391 -117.60188 132.3869671 -122.58935547 139.10302734 C-124.80003086 142.07584627 -127.02525674 145.03770355 -129.25 148 C-130.34054688 149.4540625 -130.34054688 149.4540625 -131.453125 150.9375 C-131.96359375 151.618125 -132.4740625 152.29875 -133 153 C-131.63783758 156.21965664 -130.27468847 157.81687435 -127.375 159.75 C-126.74335937 160.17796875 -126.11171875 160.6059375 -125.4609375 161.046875 C-124.97882813 161.36140625 -124.49671875 161.6759375 -124 162 C-119.91117119 158.11336602 -116.5123901 153.94124876 -113.125 149.4375 C-112.2889624 148.33571411 -112.2889624 148.33571411 -111.43603516 147.21166992 C-107.69966866 142.27931453 -103.99391562 137.32402821 -100.2878418 132.36889648 C-97.19886634 128.24066905 -94.10332034 124.11745489 -91 120 C-90.44940918 119.2692627 -89.89881836 118.53852539 -89.33154297 117.78564453 C-87.83445414 115.80812252 -86.32611226 113.83989006 -84.8125 111.875 C-84.37921387 111.30112549 -83.94592773 110.72725098 -83.49951172 110.13598633 C-81.27858018 107.28069185 -79.46806792 105.18966987 -76 104 C-73.125 103.8125 -73.125 103.8125 -70 105 C-65.04799161 110.95097755 -61.6349896 118.20943606 -58.125 125.0625 C-57.62742187 126.02349609 -57.12984375 126.98449219 -56.6171875 127.97460938 C-55.40674333 130.31402552 -54.20112365 132.65578884 -53 135 C-50.72722719 134.14188569 -50.72722719 134.14188569 -49.99157715 131.44433594 C-49.63535278 130.30254883 -49.27912842 129.16076172 -48.91210938 127.984375 C-48.7133017 127.35448669 -48.51449402 126.72459839 -48.30966187 126.07562256 C-47.64695756 123.96932338 -46.9953446 121.85976011 -46.34375 119.75 C-45.87794555 118.26087168 -45.41150312 116.77194279 -44.94445801 115.28320312 C-43.70514564 111.3260991 -42.47532852 107.36610209 -41.24719238 103.40551758 C-40.03817565 99.51319872 -38.81923302 95.62399322 -37.6015625 91.734375 C-34.95546113 83.27319225 -32.33285778 74.8048619 -29.72015381 66.33331299 C-28.98803638 63.96123763 -28.25415913 61.58971193 -27.52001953 59.21826172 C-26.32521918 55.35643482 -25.13679118 51.49269964 -23.95314026 47.62744141 C-23.50908142 46.18008772 -23.06318056 44.73329776 -22.61534119 43.28710938 C-21.99927383 41.29586537 -21.39032663 39.30257987 -20.78320312 37.30859375 C-20.26457703 35.61947876 -20.26457703 35.61947876 -19.73547363 33.89624023 C-18.83591409 30.85186939 -18.83591409 30.85186939 -19 27 C-21.5634946 27 -23.02894911 27.84503888 -25.34765625 28.94921875 Z " fill="#121212" transform="translate(203,201)"/>
<path d="M0 0 C7.72716923 5.23403447 14.58181118 11.95336495 17.32421875 21.1328125 C19.1278955 30.60211545 18.60001594 39.76884671 13.94921875 48.3203125 C8.49161327 55.96096017 1.46238802 62.56921585 -8.05078125 64.3203125 C-19.85815886 65.37074362 -28.42666004 64.10170331 -38.16796875 56.71484375 C-44.84832075 50.67959012 -48.60661645 42.43612018 -49.25390625 33.5234375 C-49.4271146 22.61131124 -47.09008095 15.05951494 -39.80078125 6.7578125 C-29.25646799 -2.58828334 -13.10274599 -7.13787687 0 0 Z M-29.55078125 20.9453125 C-32.21910668 24.87835108 -32.88240979 28.14162527 -32.5703125 32.859375 C-31.39740544 38.41525056 -28.44655541 42.02191794 -24.36328125 45.8203125 C-19.12054298 48.19438266 -14.21553704 48.49625772 -8.76953125 46.47265625 C-3.57806409 43.6154122 -0.7700211 39.97542221 0.94921875 34.3203125 C1.61948336 28.86244353 0.64319918 25.09995519 -2.05078125 20.3203125 C-5.26021336 16.44985914 -8.47918107 14.06044206 -13.48828125 13.1953125 C-20.35673576 12.90328637 -25.13889446 15.85149473 -29.55078125 20.9453125 Z " fill="#121212" transform="translate(332.05078125,391.6796875)"/>
<path d="M0 0 C7.28255076 5.25600762 12.76868062 11.98419822 14.625 20.89453125 C15.81540304 31.4593582 15.33303861 41.17216726 9.08203125 50.09765625 C3.71327068 56.73182263 -2.88646802 61.38850138 -11.375 62.89453125 C-20.22492135 63.59690596 -27.50929636 63.18105679 -35.375 58.89453125 C-36.00921875 58.55550781 -36.6434375 58.21648437 -37.296875 57.8671875 C-44.33720514 53.49034509 -49.32643958 45.82909624 -51.375 37.89453125 C-52.75717135 26.97388847 -52.10216457 16.98454288 -45.375 7.89453125 C-34.140512 -5.29946048 -15.05659224 -8.73527838 0 0 Z M-32.375 19.89453125 C-35.4186495 24.35855052 -35.70491573 27.54532218 -34.87890625 32.71875 C-33.76295782 37.53722502 -32.30640779 40.17657108 -28.375 43.20703125 C-23.7071648 45.83268855 -19.66603138 46.44777598 -14.375 45.89453125 C-9.69376224 44.15054071 -6.41716379 41.86624509 -3.375 37.89453125 C-1.53625214 33.04692326 -0.78463169 28.56897107 -2.4375 23.58203125 C-5.13953494 17.70392015 -9.40724467 14.25676773 -15.375 11.89453125 C-22.3549473 10.8206932 -28.06422174 14.74554611 -32.375 19.89453125 Z " fill="#111111" transform="translate(143.375,393.10546875)"/>
<path d="M0 0 C2.51042286 0.97933358 3.76279347 1.59973276 5.15673828 3.9519043 C5.45821777 4.73476807 5.75969727 5.51763184 6.0703125 6.32421875 C6.40933594 7.18853516 6.74835938 8.05285156 7.09765625 8.94335938 C7.43667969 9.84892578 7.77570313 10.75449219 8.125 11.6875 C8.47175781 12.57373047 8.81851563 13.45996094 9.17578125 14.37304688 C14.49078993 28.12894099 14.49078993 28.12894099 14 35 C13 36 13 36 10.4375 36.0625 C9.633125 36.041875 8.82875 36.02125 8 36 C4.76059566 30.6796538 2.433078 25.34891447 0.3125 19.5 C0.00505859 18.68402344 -0.30238281 17.86804688 -0.61914062 17.02734375 C-2.34328026 12.32651666 -3.49755761 7.98422852 -4 3 C-2.68 2.01 -1.36 1.02 0 0 Z " fill="#2A2A2A" transform="translate(219,239)"/>
<path d="M0 0 C3.36434674 0.19628921 5.44382986 0.84258353 8.48657227 2.23730469 C9.43725586 2.67042969 10.38793945 3.10355469 11.36743164 3.54980469 C12.34389648 4.00871094 13.32036133 4.46761719 14.32641602 4.94042969 C15.30674805 5.38386719 16.28708008 5.82730469 17.29711914 6.28417969 C22.07377943 8.48929102 26.35215971 10.58993141 30.26391602 14.19042969 C29.93391602 15.84042969 29.60391602 17.49042969 29.26391602 19.19042969 C24.3976963 20.85321133 21.0522981 19.20314823 16.63891602 17.12792969 C15.93758545 16.80937012 15.23625488 16.49081055 14.51367188 16.16259766 C-0.82993576 9.09657791 -0.82993576 9.09657791 -3.73608398 6.19042969 C-3.86108398 3.69042969 -3.86108398 3.69042969 -3.73608398 1.19042969 C-2.73608398 0.19042969 -2.73608398 0.19042969 0 0 Z " fill="#262626" transform="translate(135.736083984375,181.8095703125)"/>
<path d="M0 0 C2.25 -0.375 2.25 -0.375 5 0 C9.04496009 4.93208413 10.76273282 10.48667509 12.6875 16.5 C12.99494141 17.42425781 13.30238281 18.34851563 13.61914062 19.30078125 C16.711572 28.76077921 16.711572 28.76077921 17 33 C16.34 33.66 15.68 34.32 15 35 C12.5625 34.875 12.5625 34.875 10 34 C7.60677807 31.28187046 6.34875932 28.67822653 5.2109375 25.26171875 C4.90929687 24.35873047 4.60765625 23.45574219 4.296875 22.52539062 C3.99265625 21.58888672 3.6884375 20.65238281 3.375 19.6875 C3.06304687 18.76259766 2.75109375 17.83769531 2.4296875 16.88476562 C-1.89120383 3.78240766 -1.89120383 3.78240766 0 0 Z " fill="#262626" transform="translate(168,143)"/>
<path d="M0 0 C2.80599531 0.87082613 5.32582832 1.82132014 8 3 C8.75804932 3.32379639 9.51609863 3.64759277 10.29711914 3.98120117 C25.64985929 10.64985929 25.64985929 10.64985929 30 15 C30.125 17.625 30.125 17.625 30 20 C24.92316488 21.76542204 21.47432706 19.97502083 16.8125 17.9375 C16.060896 17.61821533 15.30929199 17.29893066 14.53491211 16.9699707 C7.97942617 14.12279515 1.10827682 11.10827682 -4 6 C-3.8125 4 -3.8125 4 -3 2 C-2.01 1.34 -1.02 0.68 0 0 Z " fill="#232323" transform="translate(238,215)"/>
<path d="M0 0 C1 1 1 1 1.0625 3.5625 C1.041875 4.366875 1.02125 5.17125 1 6 C-5.03945189 9.35360228 -11.26353678 11.9730279 -17.75 14.3125 C-18.47050537 14.57885254 -19.19101074 14.84520508 -19.93334961 15.11962891 C-24.09961567 16.58554625 -27.51839007 17.30300193 -32 17 C-32.33 15.02 -32.66 13.04 -33 11 C-27.60078584 6.89028888 -21.75562483 4.87434322 -15.375 2.6875 C-14.33859375 2.31560547 -13.3021875 1.94371094 -12.234375 1.56054688 C-11.23664063 1.21443359 -10.23890625 0.86832031 -9.2109375 0.51171875 C-8.30649902 0.19678467 -7.40206055 -0.11814941 -6.47021484 -0.44262695 C-3.85085517 -1.03365266 -2.48772218 -0.9410262 0 0 Z " fill="#262626" transform="translate(264,176)"/>
<path d="M0 0 C1.67542976 0.28604898 3.34385343 0.61781233 5 1 C6.06190172 4.87923564 5.98322751 6.93824887 4.3046875 10.58203125 C3.91796875 11.43216797 3.53125 12.28230469 3.1328125 13.15820312 C2.51019531 14.47208008 2.51019531 14.47208008 1.875 15.8125 C1.483125 16.67681641 1.09125 17.54113281 0.6875 18.43164062 C-1.83314329 23.88891571 -4.67984848 28.98989311 -8 34 C-9.65 33.67 -11.3 33.34 -13 33 C-15.75105636 23.41455835 -7.1858067 12.26773814 -2.671875 3.95703125 C-1 1 -1 1 0 0 Z " fill="#252525" transform="translate(221,140)"/>
<path d="M0 0 C1.05320435 -0.00809692 1.05320435 -0.00809692 2.12768555 -0.01635742 C5.82507935 0.03501388 7.47416821 0.21194547 10.625 2.3125 C9.98473877 2.3218457 9.34447754 2.33119141 8.68481445 2.34082031 C5.76827625 2.39468847 2.85331375 2.47830199 -0.0625 2.5625 C-1.57360352 2.58376953 -1.57360352 2.58376953 -3.11523438 2.60546875 C-9.17900655 2.78562058 -9.17900655 2.78562058 -14.58203125 5.359375 C-15.46955078 6.32617188 -15.46955078 6.32617188 -16.375 7.3125 C-16.375 6.6525 -16.375 5.9925 -16.375 5.3125 C-17.695 5.6425 -19.015 5.9725 -20.375 6.3125 C-14.94402807 0.34678622 -7.63687502 0.03690141 0 0 Z " fill="#515151" transform="translate(126.375,388.6875)"/>
<path d="M0 0 C0.66 0.33 1.32 0.66 2 1 C-3.96583144 9.81548975 -3.96583144 9.81548975 -9 11 C-9 11.99 -9 12.98 -9 14 C-9.66 14 -10.32 14 -11 14 C-9.05580907 7.99068257 -5.23064093 3.48709396 0 0 Z " fill="#515151" transform="translate(471,19)"/>
<path d="M0 0 C0.66 0.33 1.32 0.66 2 1 C0.73657512 2.48549956 -0.5360103 3.96321189 -1.8125 5.4375 C-2.52019531 6.26121094 -3.22789062 7.08492188 -3.95703125 7.93359375 C-6 10 -6 10 -9 11 C-7.44095325 7.17324889 -4.96833913 4.81992217 -2 2 C-1.34 1.34 -0.68 0.68 0 0 Z " fill="#545454" transform="translate(297,394)"/>
<path d="M0 0 C-1.38188453 3.21043882 -2.92421903 5.04936365 -5.625 7.25 C-6.57246094 8.03117187 -6.57246094 8.03117187 -7.5390625 8.828125 C-8.02117188 9.21484375 -8.50328125 9.6015625 -9 10 C-9 7 -9 7 -7.5390625 5.17578125 C-6.90742188 4.56089844 -6.27578125 3.94601563 -5.625 3.3125 C-4.68527344 2.37857422 -4.68527344 2.37857422 -3.7265625 1.42578125 C-2 0 -2 0 0 0 Z " fill="#4A4A4A" transform="translate(31,99)"/>
<path d="M0 0 C-1.423125 0.680625 -1.423125 0.680625 -2.875 1.375 C-6.00313679 2.80238254 -6.00313679 2.80238254 -8 5 C-8 4.34 -8 3.68 -8 3 C-9.32 3.33 -10.64 3.66 -12 4 C-8.66437635 0.13769893 -4.98576775 -1.84658065 0 0 Z " fill="#606060" transform="translate(118,391)"/>
<path d="M0 0 C1.65 0 3.3 0 5 0 C4.2884375 0.556875 4.2884375 0.556875 3.5625 1.125 C1.47794198 3.62646962 1.35378509 5.81593418 1 9 C-0.61949011 6.42786866 -1.04408751 5.32330841 -0.625 2.25 C-0.41875 1.5075 -0.2125 0.765 0 0 Z " fill="#575757" transform="translate(168,143)"/>
</svg>
